<svg width="152" height="32" viewBox="0 0 152 32" fill="none" xmlns="http://www.w3.org/2000/svg">
<path d="M13.3326 1L13.3516 11.7719C17.0512 12.1774 19.7237 15.5195 19.3198 19.2344C18.9973 22.2064 16.3357 24.3537 13.3733 24.0271L13.3516 11.7719C8.72772 11.2657 4.57002 14.6187 4.06318 19.2617C3.43167 25.0668 7.60563 30.2867 13.3868 30.9208C20.6127 31.7128 27.1121 26.4738 27.9008 19.2181C28.8901 10.1472 22.3663 1.99065 13.3326 1Z" fill="white"/>
<path d="M42 23.4241V9H47.4045C49.9871 9 51.9792 9.62353 53.3835 10.8706C54.7799 12.1101 55.4794 13.8977 55.4794 16.2309C55.4794 17.6866 55.1735 18.9538 54.5644 20.0324C53.9607 21.106 53.0537 21.9407 51.8409 22.5366C50.6414 23.1274 49.1839 23.4216 47.4684 23.4216H42V23.4241ZM47.2662 21.1412C48.9259 21.1412 50.2238 20.7289 51.16 19.9042C52.0962 19.0795 52.5643 17.8551 52.5643 16.2334C52.5643 14.6118 52.1095 13.4401 51.2026 12.5828C50.2956 11.7254 48.9764 11.2955 47.2449 11.2955H44.8512V21.1412H47.2662Z" fill="white"/>
<path d="M58.8226 23.1526C58.0008 22.7302 57.3598 22.1142 56.9076 21.3021C56.4528 20.49 56.2268 19.5145 56.2268 18.3755C56.2268 17.3372 56.4528 16.4119 56.9076 15.5998C57.3678 14.7827 58.0034 14.1516 58.812 13.7091C59.6205 13.2666 60.5355 13.0454 61.5568 13.0454C63.1739 13.0454 64.4319 13.5306 65.3336 14.5036C66.2352 15.4766 66.6847 16.7941 66.6847 18.456V19.0192H58.9503C58.9583 19.8162 59.2083 20.485 59.7056 21.0205C60.195 21.551 60.844 21.815 61.6526 21.815C62.2403 21.815 62.7457 21.6667 63.1633 21.3725C63.5808 21.0783 63.8335 20.6685 63.9186 20.1456H66.6209C66.5437 20.837 66.2911 21.4605 65.8655 22.0161C65.432 22.5718 64.8548 23.0093 64.1314 23.3235C63.4 23.6378 62.5755 23.7962 61.6526 23.7962C60.5966 23.7962 59.6525 23.5825 58.8226 23.1526ZM63.9612 17.2089C63.9266 16.5251 63.6925 15.9719 63.259 15.5496C62.8255 15.1272 62.251 14.916 61.5355 14.916C60.8201 14.916 60.2376 15.1297 59.7482 15.5596C59.2801 15.9745 59.0061 16.5251 58.929 17.2089H63.9612Z" fill="white"/>
<path d="M69.9322 23.1526C69.1104 22.7302 68.4694 22.1142 68.0172 21.3021C67.5624 20.49 67.3363 19.5145 67.3363 18.3755C67.3363 17.3372 67.5624 16.4119 68.0172 15.5998C68.4774 14.7827 69.113 14.1516 69.9216 13.7091C70.7301 13.2666 71.6451 13.0454 72.6664 13.0454C74.2835 13.0454 75.5415 13.5306 76.4432 14.5036C77.3448 15.4766 77.7943 16.7941 77.7943 18.456V19.0192H70.0599C70.0679 19.8162 70.3179 20.485 70.8152 21.0205C71.3046 21.551 71.9536 21.815 72.7621 21.815C73.3499 21.815 73.8553 21.6667 74.2728 21.3725C74.6904 21.0783 74.9431 20.6685 75.0282 20.1456H77.7305C77.6533 20.837 77.4007 21.4605 76.9751 22.0161C76.5416 22.5718 75.9644 23.0093 75.241 23.3235C74.5096 23.6378 73.6851 23.7962 72.7621 23.7962C71.7062 23.7962 70.762 23.5825 69.9322 23.1526ZM75.0708 17.2089C75.0362 16.5251 74.8021 15.9719 74.3686 15.5496C73.9351 15.1272 73.3606 14.916 72.6451 14.916C71.9296 14.916 71.3472 15.1297 70.8578 15.5596C70.3897 15.9745 70.1157 16.5251 70.0386 17.2089H75.0708Z" fill="white"/>
<path d="M79.0523 27.6279V13.3748H81.712V13.8273C81.712 14.0888 81.6828 14.4182 81.6269 14.8129C82.3716 13.6337 83.5313 13.0429 85.1058 13.0429C86.05 13.0429 86.8692 13.2717 87.5634 13.7267C88.2656 14.1894 88.8081 14.8305 89.1911 15.6476C89.5821 16.4798 89.7763 17.4151 89.7763 18.4535C89.7763 19.4919 89.5661 20.4347 89.1486 21.2594C88.7443 22.0564 88.1725 22.6799 87.4357 23.1299C86.7123 23.5724 85.9011 23.7937 84.9994 23.7937C84.1563 23.7937 83.4781 23.6428 82.9674 23.3411C82.4435 23.0269 81.9966 22.5944 81.6269 22.0438C81.6828 22.4385 81.712 22.7604 81.712 23.0093V27.6254H79.0523V27.6279ZM86.3186 20.8797C86.8213 20.2486 87.074 19.429 87.074 18.4158C87.074 17.4025 86.8293 16.6055 86.3399 15.982C85.8426 15.3509 85.1803 15.0367 84.3505 15.0367C83.5206 15.0367 82.8717 15.3459 82.361 15.9619C81.8583 16.5653 81.6057 17.3824 81.6057 18.4158C81.6057 19.4491 81.8583 20.2461 82.361 20.8697C82.8717 21.5007 83.5339 21.815 84.3505 21.815C85.167 21.815 85.8213 21.5032 86.3186 20.8797Z" fill="white"/>
<path d="M92.9839 23.1526C92.162 22.7302 91.521 22.1142 91.0689 21.3021C90.6141 20.49 90.388 19.5145 90.388 18.3755C90.388 17.3372 90.6141 16.4119 91.0689 15.5998C91.529 14.7827 92.1647 14.1516 92.9732 13.7091C93.7818 13.2666 94.6967 13.0454 95.718 13.0454C97.3351 13.0454 98.5932 13.5306 99.4948 14.5036C100.396 15.4766 100.846 16.7941 100.846 18.456V19.0192H93.1115C93.1195 19.8162 93.3695 20.485 93.8669 21.0205C94.3563 21.551 95.0052 21.815 95.8138 21.815C96.4016 21.815 96.9069 21.6667 97.3245 21.3725C97.7421 21.0783 97.9947 20.6685 98.0799 20.1456H100.782C100.705 20.837 100.452 21.4605 100.027 22.0161C99.5932 22.5718 99.0161 23.0093 98.2926 23.3235C97.5612 23.6378 96.7367 23.7962 95.8138 23.7962C94.7579 23.7962 93.8137 23.5825 92.9839 23.1526ZM98.1224 17.2089C98.0878 16.5251 97.8538 15.9719 97.4202 15.5496C96.9867 15.1272 96.4122 14.916 95.6968 14.916C94.9813 14.916 94.3988 15.1297 93.9094 15.5596C93.4413 15.9745 93.1674 16.5251 93.0902 17.2089H98.1224Z" fill="white"/>
<path d="M102.101 23.4241V13.3748H104.761V13.8273C104.761 14.1215 104.732 14.4508 104.676 14.8129C105.357 13.6337 106.445 13.0429 107.942 13.0429C109.126 13.0429 110.046 13.4024 110.697 14.119C111.357 14.8431 111.687 15.8286 111.687 17.0757V23.4216H109.027V17.4478C109.027 16.7111 108.849 16.1228 108.495 15.6878C108.142 15.2529 107.652 15.0341 107.027 15.0341C106.367 15.0341 105.825 15.2755 105.399 15.7582C104.974 16.241 104.761 16.8318 104.761 17.5283V23.4216H102.101V23.4241Z" fill="white"/>
<path d="M114.607 26.934C113.735 26.23 113.299 25.2947 113.299 24.1281H116.001C116.036 24.7315 116.246 25.1966 116.629 25.526C117.02 25.8554 117.573 26.0188 118.288 26.0188C119.004 26.0188 119.647 25.8202 120.129 25.4254C120.61 25.0307 120.852 24.4675 120.852 23.7359V22.6397C120.852 22.2097 120.884 21.7924 120.948 21.3826C120.182 22.4964 119.076 23.052 117.629 23.052C116.7 23.052 115.876 22.8484 115.16 22.4385C114.437 22.0287 113.873 21.4404 113.469 20.6685C113.065 19.9042 112.862 19.0016 112.862 17.9632C112.862 16.9248 113.078 16.075 113.511 15.3384C113.95 14.5866 114.525 14.0184 115.235 13.6287C115.945 13.239 116.7 13.0454 117.501 13.0454C118.387 13.0454 119.097 13.1962 119.629 13.4979C120.153 13.7921 120.594 14.2321 120.948 14.8154C120.884 14.4408 120.852 14.1114 120.852 13.8298V13.3773H123.512V23.1123C123.512 24.7214 123.036 25.9383 122.086 26.763C121.142 27.5877 119.855 28 118.224 28C116.692 28 115.485 27.6455 114.607 26.934ZM120.246 20.1958C120.757 19.6251 121.012 18.8809 121.012 17.9632C121.012 17.126 120.757 16.427 120.246 15.8714C119.735 15.3157 119.089 15.0367 118.31 15.0367C117.53 15.0367 116.857 15.3182 116.341 15.8814C115.823 16.4371 115.565 17.131 115.565 17.9632C115.565 18.8884 115.817 19.6327 116.32 20.1958C116.831 20.7666 117.493 21.0507 118.31 21.0507C119.126 21.0507 119.735 20.7666 120.246 20.1958Z" fill="white"/>
<path d="M128.068 11.8461H125.302V9.21119H128.068V11.8461ZM128.004 23.4241H125.344V13.3748H128.004V23.4241Z" fill="white"/>
<path d="M129.823 23.4241V13.3748H132.483V13.8273C132.483 14.1215 132.454 14.4508 132.398 14.8129C133.079 13.6337 134.167 13.0429 135.664 13.0429C136.848 13.0429 137.768 13.4024 138.42 14.119C139.079 14.8431 139.409 15.8286 139.409 17.0757V23.4216H136.749V17.4478C136.749 16.7111 136.571 16.1228 136.217 15.6878C135.864 15.2529 135.374 15.0341 134.749 15.0341C134.09 15.0341 133.547 15.2755 133.121 15.7582C132.696 16.241 132.483 16.8318 132.483 17.5283V23.4216H129.823V23.4241Z" fill="white"/>
<path d="M143.138 23.1526C142.316 22.7302 141.675 22.1142 141.223 21.3021C140.768 20.49 140.542 19.5145 140.542 18.3755C140.542 17.3372 140.768 16.4119 141.223 15.5998C141.683 14.7827 142.319 14.1516 143.127 13.7091C143.936 13.2666 144.851 13.0454 145.872 13.0454C147.489 13.0454 148.747 13.5306 149.649 14.5036C150.55 15.4766 151 16.7941 151 18.456V19.0192H143.266C143.274 19.8162 143.524 20.485 144.021 21.0205C144.51 21.551 145.159 21.815 145.968 21.815C146.556 21.815 147.061 21.6667 147.479 21.3725C147.896 21.0783 148.149 20.6685 148.234 20.1456H150.936C150.859 20.837 150.606 21.4605 150.181 22.0161C149.747 22.5718 149.17 23.0093 148.447 23.3235C147.715 23.6378 146.891 23.7962 145.968 23.7962C144.912 23.7962 143.968 23.5825 143.138 23.1526ZM148.276 17.2089C148.242 16.5251 148.008 15.9719 147.574 15.5496C147.141 15.1272 146.566 14.916 145.851 14.916C145.135 14.916 144.553 15.1297 144.063 15.5596C143.595 15.9745 143.321 16.5251 143.244 17.2089H148.276Z" fill="white"/>
</svg>
